# xmcd
#
# Track frame offsets:
#	150
#	13988
#	29437
#	43612
#	57401
#	71014
#	84174
#	100589
#	115180
#	132672
#	146789
#	161074
#	175524
#	190389
#	202889
#	218659
#	236727
#	251514
#
# Disc length: 3552 seconds
#
# Revision: 0
# Processed by: cddbd v1.5.1PL0 Copyright (c) Steve Scherf et al.
# Submitted via: audiograbber 1.83.01
#
DISCID=010dde12
DTITLE=Patrick Lindner - Träum' Dich Ins Paradies
DYEAR=1993
DGENRE=Volksmusik
TTITLE0=Patrick Lindner - Immer Wieder Sind Es Lieder
TTITLE1=Patrick Lindner - Die Kleinen Dinge Des Lebens
TTITLE2=Patrick Lindner - Ich Hätt' Dich Sowieso Geküßt
TTITLE3=Patrick Lindner - Ohne Zärtlichkeit Geht Gar Nix
TTITLE4=Patrick Lindner - Der Mensch In Dir
TTITLE5=Patrick Lindner - Und Wenn's Nacht Wird, Gibt's A Busserl
TTITLE6=Patrick Lindner - Manchmal Braucht Man Was, An Des Man Glauben Kann
TTITLE7=Patrick Lindner - Dürfen Darf Man Alles
TTITLE8=Patrick Lindner - So Ein Tag Mit Guten Freunden
TTITLE9=Patrick Lindner - Die Kloane Tür Zum Paradies
TTITLE10=Patrick Lindner - Und Wenn I Tanz Mir Dir (Des Is A Wahnsinn)
TTITLE11=Patrick Lindner - Die Kloane Aus Der Letzten Bank
TTITLE12=Patrick Lindner - Ein Kleines Feuer, Das Dich Wärmt
TTITLE13=Patrick Lindner - Sowas Liabs Wie Di
TTITLE14=Patrick Lindner - Das Glück Ist Ein Seltsames Vogerl
TTITLE15=Patrick Lindner - Lass Mich Heut Abend Deine Kleine Insel Sein
TTITLE16=Patrick Lindner - Anna Lena
TTITLE17=Patrick Lindner - Lass Mei Herz A Bisserl Träumen
EXTD=
EXTT0=
EXTT1=
EXTT2=
EXTT3=
EXTT4=
EXTT5=
EXTT6=
EXTT7=
EXTT8=
EXTT9=
EXTT10=
EXTT11=
EXTT12=
EXTT13=
EXTT14=
EXTT15=
EXTT16=
EXTT17=
PLAYORDER=
